{"title":"Captain.America.Civil.War.2016.1080p.BluRay.x265.10bit-z97","uid":15722761,"size":2071940099,"categoryP":"video","categoryS":"movies","magnet":"?xt=urn:btih:9583425c7c66bec1b3da1e7430365940b4249bb4&amp;dn=Captain.America.Civil.War.2016.1080p.BluRay.x265.10bit-z97&amp;tr=udp%3A%2F%2Ftracker.leechers-paradise.org%3A6969&amp;tr=udp%3A%2F%2Fzer0day.ch%3A1337&amp;tr=udp%3A%2F%2Fopen.demonii.com%3A1337&amp;tr=udp%3A%2F%2Ftracker.coppersurfer.tk%3A6969&amp;tr=udp%3A%2F%2Fexodus.desync.com%3A6969","seeders":2,"leechers":0,"uploader":"48848448","files":2,"time":1472683798,"description":"______ _____  ______\r\n                       |___  /|  _  ||___  /\r\n                          / / | |_| |   / / \r\n                         / /  ____ |  / /  \r\n                       ./ /___.___/ /./ /   \r\n                       _____/____/ _/   \r\n\r\n\r\n                         RELEASE NOTES                         \r\n▄▄▄▄▄▄▄▄▄▄▄▄▄▄▄▄▄▄▄▄▄▄▄▄▄▄▄▄▄▄▄▄▄▄▄▄▄▄▄▄▄▄▄▄▄▄▄▄▄▄▄▄▄▄▄▄▄▄▄▄▄▄▄▄▄\r\n\r\n                Captain America - Civil War 2016 \r\n               \r\niMDB url                       : www.imdb.com/title/tt3498820/\r\niMDB Rating                    : 8.2/10 from 286,854 votes\r\nRelease                        : 2016 - May 6th\r\nGenre                          : Action, Adventure, Sci-Fi\r\nSource                         : BluRay\r\nSubs                           : ENG/DEN/FIN/NOR/SWE\r\n\r\n                         PLOT SUMMARY                     \r\n▄▄▄▄▄▄▄▄▄▄▄▄▄▄▄▄▄▄▄▄▄▄▄▄▄▄▄▄▄▄▄▄▄▄▄▄▄▄▄▄▄▄▄▄▄▄▄▄▄▄▄▄▄▄▄▄▄▄▄▄▄▄▄▄▄▄\r\n\r\nPolitical interference in the Avengers' activities causes a rift\r\nbetween former allies Captain America and Iron Man.\r\n\r\nDirector : Anthony Russo, Joe Russo \r\nStars    : Chris Evans, Robert Downey Jr., Scarlett Johansson \r\n\r\n                      RELEASE INFORMATION                 \r\n▄▄▄▄▄▄▄▄▄▄▄▄▄▄▄▄▄▄▄▄▄▄▄▄▄▄▄▄▄▄▄▄▄▄▄▄▄▄▄▄▄▄▄▄▄▄▄▄▄▄▄▄▄▄▄▄▄▄▄▄▄▄▄▄▄▄\r\n\r\nVideo\r\nID                             : 1\r\nFormat                         : HEVC\r\nFormat/Info                    : High Efficiency Video Coding\r\nFormat profile                 : Main   @High\r\nCodec ID                       : V_MPEGH/ISO/HEVC\r\nDuration                       : 2h 27mn\r\nBit rate                       : 1 449 Kbps\r\nWidth                          : 1 920 pixels\r\nHeight                         : 804 pixels\r\nDisplay aspect ratio           : 2.40:1\r\nFrame rate mode                : Constant\r\nFrame rate                     : 23.976 fps\r\nColor space                    : YUV\r\nChroma subsampling             : 4:2:0\r\nBit depth                      : 10 bits\r\nBits/(Pixel*Frame)             : 0.039\r\nStream size                    : 1.50 GiB (77%)\r\nWriting library                : x265 2.0+21 [64 bit] 10bit\r\nLanguage                       : English\r\nDefault                        : Yes\r\nForced                         : No\r\n\r\nAudio\r\nID                             : 2\r\nFormat                         : AC-3\r\nFormat/Info                    : Audio Coding 3\r\nMode extension                 : CM (complete main)\r\nFormat settings, Endianness    : Big\r\nCodec ID                       : A_AC3\r\nDuration                       : 2h 27mn\r\nBit rate mode                  : Constant\r\nBit rate                       : 384 Kbps\r\nChannel(s)                     : 6 channels\r\nChannel positions              : Front: L C R, Side: L R, LFE\r\nSampling rate                  : 48.0 KHz\r\nCompression mode               : Lossy\r\nStream size                    : 406 MiB (21%)\r\nLanguage                       : English\r\nDefault                        : Yes\r\nForced                         : No","torrent":{"xt":"urn:btih:9583425c7c66bec1b3da1e7430365940b4249bb4","amp;dn":"Captain.America.Civil.War.2016.1080p.BluRay.x265.10bit-z97","amp;tr":["udp%3A%2F%2Ftracker.leechers-paradise.org%3A6969","udp%3A%2F%2Fzer0day.ch%3A1337","udp%3A%2F%2Fopen.demonii.com%3A1337","udp%3A%2F%2Ftracker.coppersurfer.tk%3A6969","udp%3A%2F%2Fexodus.desync.com%3A6969"],"infoHash":"9583425c7c66bec1b3da1e7430365940b4249bb4","infoHashBuffer":{"type":"Buffer","data":[149,131,66,92,124,102,190,193,179,218,30,116,48,54,89,64,180,36,155,180]},"announce":[],"urlList":[]}}